<svg xmlns="http://www.w3.org/2000/svg" xmlns:xlink="http://www.w3.org/1999/xlink" width="500" zoomAndPan="magnify" viewBox="0 0 375 374.999991" height="500" preserveAspectRatio="xMidYMid meet" version="1.0"><defs><g/><clipPath id="e67f502442"><path d="M 0 112.5 L 150 112.5 L 150 262.5 L 0 262.5 Z M 0 112.5 " clip-rule="nonzero"/></clipPath></defs><g clip-path="url(#e67f502442)"><path fill="#ffffff" d="M 87.417969 186.8125 C 87.367188 187.042969 87.34375 187.28125 87.34375 187.523438 C 87.347656 187.753906 87.371094 187.976562 87.417969 188.191406 C 87.058594 194.730469 81.628906 199.9375 75 199.9375 C 68.140625 199.9375 62.5625 194.359375 62.5625 187.5 C 62.5625 180.640625 68.140625 175.0625 75 175.0625 C 81.628906 175.0625 87.0625 180.273438 87.417969 186.8125 Z M 146.753906 184.230469 C 143.386719 184.207031 140.015625 184.1875 136.640625 184.175781 C 138.664062 181.449219 140.742188 178.636719 140.960938 178.34375 C 141.984375 177.003906 141.820312 175.078125 140.539062 173.933594 C 139.199219 172.726562 137.132812 172.839844 135.925781 174.183594 C 135.824219 174.300781 135.8125 174.3125 128.527344 184.144531 C 125.066406 184.136719 121.605469 184.132812 118.152344 184.132812 C 120.164062 181.417969 122.105469 178.792969 122.410156 178.386719 C 123.292969 177.265625 123.363281 175.65625 122.488281 174.445312 C 121.425781 172.984375 119.382812 172.660156 117.921875 173.71875 C 117.519531 174.011719 117.5 174.03125 110.011719 184.140625 C 104.542969 184.152344 99.101562 184.179688 93.683594 184.210938 C 93.304688 182.039062 92.550781 179.992188 91.496094 178.136719 C 95.199219 174.558594 98.980469 170.957031 102.773438 167.371094 L 114.289062 169.625 C 114.5 169.667969 114.714844 169.6875 114.921875 169.6875 C 116.453125 169.6875 117.820312 168.605469 118.125 167.046875 C 118.472656 165.273438 117.316406 163.554688 115.546875 163.210938 L 108.621094 161.855469 C 110.136719 160.425781 111.652344 159.003906 113.152344 157.59375 C 114.074219 156.726562 115.007812 155.847656 115.941406 154.972656 L 127.726562 157.277344 C 127.9375 157.320312 128.152344 157.339844 128.359375 157.339844 C 129.890625 157.339844 131.257812 156.257812 131.5625 154.699219 C 131.910156 152.925781 130.753906 151.207031 128.980469 150.863281 L 121.796875 149.453125 C 124.3125 147.078125 126.832031 144.695312 129.316406 142.324219 C 130.621094 141.078125 130.667969 139.011719 129.425781 137.703125 C 128.175781 136.398438 126.109375 136.347656 124.804688 137.59375 C 122.378906 139.90625 119.917969 142.238281 117.460938 144.558594 C 117.046875 141.191406 116.625 137.699219 116.574219 137.292969 C 116.402344 135.648438 115.011719 134.367188 113.324219 134.367188 C 111.519531 134.367188 110.054688 135.832031 110.054688 137.636719 C 110.054688 137.835938 110.058594 137.855469 111.550781 150.125 C 110.589844 151.03125 109.628906 151.9375 108.675781 152.828125 C 107.144531 154.269531 105.601562 155.722656 104.054688 157.175781 C 103.636719 153.730469 103.1875 150.058594 103.136719 149.640625 C 102.964844 147.996094 101.574219 146.714844 99.886719 146.714844 C 98.082031 146.714844 96.617188 148.179688 96.617188 149.984375 C 96.617188 150.183594 96.617188 150.199219 98.148438 162.75 C 94.511719 166.1875 90.878906 169.644531 87.320312 173.085938 C 84.796875 170.925781 81.703125 169.417969 78.300781 168.816406 C 78.363281 163.371094 78.402344 157.957031 78.425781 152.554688 L 88.027344 145.71875 C 89.5 144.671875 89.84375 142.632812 88.796875 141.160156 C 87.75 139.691406 85.707031 139.347656 84.238281 140.394531 L 78.445312 144.519531 C 78.445312 141.03125 78.4375 137.539062 78.421875 134.039062 L 88.027344 127.199219 C 89.5 126.152344 89.84375 124.113281 88.796875 122.640625 C 87.75 121.167969 85.707031 120.828125 84.238281 121.875 L 78.371094 126.050781 C 78.34375 122.625 78.3125 119.1875 78.269531 115.730469 C 78.246094 113.921875 76.757812 112.476562 74.957031 112.503906 C 73.152344 112.523438 71.707031 114.003906 71.730469 115.808594 C 71.777344 119.21875 71.808594 122.601562 71.835938 125.976562 C 69.050781 123.914062 66.3125 121.886719 65.890625 121.570312 C 64.800781 120.714844 63.246094 120.613281 62.039062 121.429688 C 60.542969 122.441406 60.148438 124.472656 61.160156 125.96875 C 61.464844 126.425781 61.484375 126.445312 71.882812 134.148438 C 71.898438 137.621094 71.910156 141.089844 71.910156 144.550781 C 69.136719 142.496094 66.195312 140.320312 65.855469 140.066406 C 64.550781 139.066406 62.671875 139.183594 61.507812 140.398438 C 60.257812 141.703125 60.300781 143.769531 61.605469 145.019531 C 61.753906 145.167969 61.765625 145.175781 71.890625 152.671875 C 71.867188 158.03125 71.824219 163.402344 71.765625 168.808594 C 69.300781 169.230469 67 170.132812 64.957031 171.410156 C 61.65625 167.699219 58.289062 164.125 54.945312 160.648438 L 57.128906 149.5 C 57.472656 147.730469 56.320312 146.015625 54.546875 145.667969 C 52.773438 145.320312 51.058594 146.476562 50.714844 148.246094 L 49.410156 154.894531 C 47.113281 152.5 44.800781 150.058594 42.527344 147.574219 L 44.78125 136.066406 C 45.128906 134.296875 43.972656 132.578125 42.199219 132.230469 C 40.425781 131.882812 38.710938 133.039062 38.363281 134.8125 L 36.976562 141.902344 C 36.210938 141.105469 35.457031 140.285156 34.683594 139.4375 C 33.121094 137.722656 31.503906 135.949219 29.632812 134.289062 C 28.28125 133.089844 26.214844 133.210938 25.019531 134.5625 C 23.820312 135.910156 23.941406 137.976562 25.292969 139.175781 C 26.902344 140.609375 28.339844 142.183594 29.859375 143.847656 C 30.605469 144.664062 31.367188 145.492188 32.160156 146.324219 C 28.765625 146.738281 25.207031 147.167969 24.796875 147.21875 C 23.152344 147.390625 21.871094 148.78125 21.871094 150.46875 C 21.871094 152.273438 23.332031 153.738281 25.136719 153.738281 C 25.339844 153.738281 25.351562 153.734375 37.90625 152.210938 C 40.246094 154.761719 42.617188 157.257812 44.964844 159.703125 C 41.4375 160.132812 37.570312 160.605469 37.140625 160.65625 C 35.5 160.828125 34.21875 162.21875 34.21875 163.90625 C 34.21875 165.710938 35.679688 167.175781 37.484375 167.175781 C 37.691406 167.175781 37.699219 167.171875 50.640625 165.597656 C 53.808594 168.898438 56.996094 172.289062 60.09375 175.78125 C 58.195312 178.191406 56.867188 181.074219 56.316406 184.21875 C 52.179688 184.191406 48.035156 184.167969 43.886719 184.15625 C 36.449219 174.117188 36.429688 174.097656 36.128906 173.847656 C 34.742188 172.695312 32.679688 172.890625 31.527344 174.28125 C 30.527344 175.488281 30.542969 177.195312 31.46875 178.378906 C 31.761719 178.769531 33.714844 181.40625 35.738281 184.140625 C 32.277344 184.136719 28.816406 184.136719 25.355469 184.140625 C 18.003906 174.21875 17.988281 174.203125 17.796875 174.015625 C 16.5 172.761719 14.429688 172.796875 13.175781 174.09375 C 12.03125 175.277344 11.960938 177.101562 12.9375 178.363281 C 13.203125 178.726562 15.246094 181.480469 17.230469 184.15625 C 12.558594 184.171875 7.894531 184.199219 3.246094 184.230469 C 1.441406 184.246094 -0.0117188 185.71875 0 187.523438 C 0.015625 189.320312 1.476562 190.769531 3.269531 190.769531 C 3.277344 190.769531 3.285156 190.769531 3.292969 190.769531 C 8.035156 190.734375 12.792969 190.710938 17.5625 190.691406 L 13.257812 196.738281 C 12.210938 198.207031 12.554688 200.25 14.027344 201.296875 C 14.601562 201.703125 15.265625 201.902344 15.917969 201.902344 C 16.941406 201.902344 17.949219 201.425781 18.582031 200.527344 L 25.597656 190.679688 C 29.09375 190.675781 32.59375 190.675781 36.09375 190.679688 L 31.78125 196.738281 C 30.734375 198.207031 31.078125 200.25 32.546875 201.296875 C 33.121094 201.703125 33.785156 201.902344 34.441406 201.902344 C 35.460938 201.902344 36.46875 201.425781 37.105469 200.527344 L 44.109375 190.691406 C 48.183594 190.707031 52.25 190.726562 56.3125 190.753906 C 56.847656 193.839844 58.128906 196.671875 59.964844 199.054688 L 51.128906 207.429688 L 38.359375 204.859375 C 36.589844 204.503906 34.867188 205.652344 34.511719 207.421875 C 34.152344 209.191406 35.300781 210.914062 37.066406 211.269531 L 45.324219 212.929688 L 36.769531 221.042969 C 24.480469 218.875 24.460938 218.871094 24.171875 218.871094 C 22.367188 218.871094 20.90625 220.335938 20.90625 222.140625 C 20.90625 223.773438 22.105469 225.128906 23.671875 225.371094 C 24.128906 225.449219 27.558594 226.054688 30.863281 226.636719 L 20.691406 236.28125 C 19.382812 237.523438 19.328125 239.59375 20.566406 240.902344 C 21.210938 241.578125 22.074219 241.921875 22.941406 241.921875 C 23.75 241.921875 24.558594 241.625 25.191406 241.023438 L 35.527344 231.226562 L 36.546875 238.484375 C 36.777344 240.117188 38.175781 241.296875 39.78125 241.296875 C 39.929688 241.296875 40.085938 241.285156 40.242188 241.265625 C 42.027344 241.011719 43.273438 239.359375 43.019531 237.574219 L 41.347656 225.707031 L 48.6875 218.75 C 49.039062 221.742188 49.363281 224.554688 49.40625 224.910156 C 49.570312 226.558594 50.964844 227.847656 52.65625 227.847656 C 54.460938 227.847656 55.925781 226.386719 55.925781 224.578125 C 55.925781 224.394531 55.925781 224.375 54.617188 213.132812 L 64.792969 203.484375 C 66.875 204.816406 69.234375 205.753906 71.761719 206.191406 C 71.808594 210.273438 71.847656 214.355469 71.867188 218.457031 C 61.433594 226.183594 61.417969 226.207031 61.09375 226.722656 C 60.140625 228.253906 60.605469 230.269531 62.136719 231.226562 C 62.671875 231.5625 63.273438 231.722656 63.863281 231.722656 C 64.59375 231.722656 65.3125 231.480469 65.890625 231.023438 C 66.304688 230.714844 68.949219 228.753906 71.894531 226.574219 C 71.902344 230.035156 71.898438 233.496094 71.890625 236.964844 C 61.738281 244.480469 61.726562 244.492188 61.554688 244.664062 C 60.277344 245.9375 60.277344 248.007812 61.554688 249.285156 C 62.191406 249.925781 63.03125 250.242188 63.867188 250.242188 C 64.570312 250.242188 65.273438 250.019531 65.859375 249.566406 C 66.214844 249.300781 69.113281 247.15625 71.867188 245.117188 C 71.835938 249.816406 71.792969 254.507812 71.730469 259.1875 C 71.707031 260.996094 73.152344 262.476562 74.957031 262.5 C 74.972656 262.5 74.988281 262.5 75 262.5 C 76.785156 262.5 78.246094 261.0625 78.269531 259.273438 C 78.328125 254.554688 78.371094 249.824219 78.402344 245.085938 L 84.238281 249.238281 C 85.707031 250.285156 87.75 249.945312 88.796875 248.472656 C 89.84375 247 89.5 244.960938 88.027344 243.914062 L 78.429688 237.082031 C 78.4375 233.582031 78.441406 230.082031 78.429688 226.585938 L 84.238281 230.71875 C 85.707031 231.765625 87.75 231.421875 88.796875 229.953125 C 89.84375 228.480469 89.5 226.441406 88.027344 225.394531 L 78.40625 218.542969 C 78.382812 214.410156 78.34375 210.292969 78.296875 206.183594 C 81.074219 205.691406 83.648438 204.597656 85.875 203.035156 C 88.945312 206.179688 91.953125 209.324219 94.964844 212.515625 L 92.363281 225.4375 C 92.007812 227.203125 93.15625 228.925781 94.925781 229.285156 C 95.140625 229.328125 95.359375 229.347656 95.570312 229.347656 C 97.097656 229.347656 98.460938 228.277344 98.773438 226.726562 L 100.453125 218.363281 C 101.933594 219.945312 103.417969 221.542969 104.925781 223.160156 C 106.121094 224.441406 107.332031 225.738281 108.542969 227.035156 C 106.375 239.3125 106.375 239.332031 106.375 239.617188 C 106.375 241.421875 107.839844 242.886719 109.644531 242.886719 C 111.277344 242.886719 112.632812 241.6875 112.875 240.121094 C 112.953125 239.667969 113.550781 236.28125 114.128906 232.996094 C 117.300781 236.363281 120.527344 239.753906 123.8125 243.132812 C 124.453125 243.789062 125.304688 244.121094 126.15625 244.121094 C 126.976562 244.121094 127.800781 243.8125 128.433594 243.195312 C 129.730469 241.9375 129.757812 239.867188 128.5 238.574219 C 125.164062 235.144531 121.886719 231.703125 118.664062 228.277344 L 125.988281 227.246094 C 127.773438 226.992188 129.019531 225.339844 128.769531 223.554688 C 128.515625 221.765625 126.867188 220.519531 125.074219 220.773438 L 113.199219 222.445312 C 112.03125 221.191406 110.863281 219.941406 109.710938 218.703125 C 108.597656 217.507812 107.46875 216.300781 106.34375 215.09375 C 109.300781 214.75 112.058594 214.429688 112.410156 214.386719 C 114.058594 214.222656 115.351562 212.828125 115.351562 211.136719 C 115.351562 209.332031 113.886719 207.867188 112.078125 207.867188 C 111.894531 207.867188 111.875 207.867188 100.777344 209.160156 C 97.394531 205.5625 93.960938 201.972656 90.5 198.429688 C 92.089844 196.179688 93.203125 193.570312 93.691406 190.75 C 99.023438 190.714844 104.386719 190.691406 109.765625 190.679688 L 116.777344 200.527344 C 117.414062 201.425781 118.421875 201.902344 119.441406 201.902344 C 120.097656 201.902344 120.761719 201.703125 121.335938 201.296875 C 122.804688 200.25 123.148438 198.207031 122.101562 196.738281 L 117.785156 190.667969 C 121.28125 190.667969 124.785156 190.671875 128.289062 190.683594 L 135.300781 200.527344 C 135.9375 201.425781 136.945312 201.902344 137.96875 201.902344 C 138.621094 201.902344 139.28125 201.703125 139.859375 201.296875 C 141.328125 200.25 141.671875 198.207031 140.625 196.738281 L 136.332031 190.710938 C 139.792969 190.726562 143.253906 190.742188 146.707031 190.769531 C 146.714844 190.769531 146.722656 190.769531 146.730469 190.769531 C 148.523438 190.769531 149.984375 189.320312 150 187.523438 C 150.011719 185.71875 148.558594 184.246094 146.753906 184.230469 " fill-opacity="1" fill-rule="nonzero"/></g><g fill="#ffffff" fill-opacity="1"><g transform="translate(156.483978, 176.312741)"><g><path d="M 18.5625 -4.5625 C 18.5625 -5.6875 18.1875 -6.859375 17.296875 -7.75 C 16.21875 -8.84375 14.8125 -9.03125 13.53125 -9.03125 L 12.125 -9.03125 C 11.515625 -9.03125 10.671875 -8.890625 10.203125 -8.40625 C 9.734375 -7.9375 9.640625 -7.140625 9.640625 -6.4375 L 9.171875 -6.4375 C 9.171875 -7.140625 9.03125 -7.984375 8.546875 -8.453125 C 8.078125 -8.9375 7.28125 -9.03125 6.578125 -9.03125 L 6.578125 -9.5 C 7.28125 -9.5 8.078125 -9.59375 8.546875 -10.0625 C 9.03125 -10.53125 9.171875 -11.375 9.171875 -11.984375 L 9.171875 -15.984375 C 9.171875 -16.59375 9.078125 -17.34375 8.59375 -17.8125 C 8.125 -18.28125 7.28125 -18.421875 6.578125 -18.421875 L 6.578125 -18.890625 C 7.28125 -18.890625 8.125 -19.03125 8.59375 -19.5 C 9.078125 -19.96875 9.171875 -20.78125 9.171875 -21.484375 L 9.640625 -21.484375 C 9.640625 -20.78125 9.78125 -19.921875 10.25 -19.453125 C 10.71875 -18.984375 11.515625 -18.890625 12.125 -18.890625 L 13.53125 -18.890625 C 14.8125 -18.890625 16.21875 -19.078125 17.296875 -20.15625 C 18.1875 -21.0625 18.5625 -22.234375 18.5625 -23.359375 C 18.5625 -24.484375 18.1875 -25.65625 17.296875 -26.5625 C 16.21875 -27.640625 14.8125 -27.828125 13.53125 -27.828125 L 12.125 -27.828125 C 11.515625 -27.828125 10.671875 -27.6875 10.203125 -27.21875 C 9.734375 -26.75 9.640625 -25.9375 9.640625 -25.234375 L 9.171875 -25.234375 C 9.171875 -25.9375 9.03125 -26.796875 8.546875 -27.265625 C 8.078125 -27.734375 7.28125 -27.828125 6.578125 -27.828125 L 6.578125 -28.296875 C 7.28125 -28.296875 8.078125 -28.390625 8.546875 -28.859375 C 9.03125 -29.328125 9.171875 -30.171875 9.171875 -30.78125 L 9.171875 -32.1875 C 9.171875 -33.46875 8.984375 -34.875 7.890625 -35.953125 C 7 -36.84375 5.828125 -37.21875 4.703125 -37.21875 C 3.578125 -37.21875 2.390625 -36.84375 1.5 -35.953125 C 0.421875 -34.875 0.234375 -33.46875 0.234375 -32.1875 L 0.234375 -5.125 C 0.234375 -3.859375 0.421875 -2.4375 1.5 -1.359375 C 2.578125 -0.28125 4 -0.09375 5.265625 -0.09375 L 13.53125 -0.09375 C 14.8125 -0.09375 16.21875 -0.28125 17.296875 -1.359375 C 18.1875 -2.25 18.5625 -3.4375 18.5625 -4.5625 Z M 18.5625 -4.5625 "/></g></g></g><g fill="#ffffff" fill-opacity="1"><g transform="translate(175.280828, 176.312741)"><g><path d="M 27.96875 -5.125 L 27.96875 -22.796875 C 27.96875 -24.0625 27.78125 -25.46875 26.703125 -26.5625 C 25.609375 -27.640625 24.203125 -27.828125 22.9375 -27.828125 L 12.125 -27.828125 C 11.515625 -27.828125 10.71875 -27.734375 10.25 -27.265625 C 9.78125 -26.796875 9.640625 -25.9375 9.640625 -25.234375 L 9.171875 -25.234375 C 9.171875 -25.9375 9.078125 -26.75 8.59375 -27.21875 C 8.125 -27.6875 7.28125 -27.828125 6.578125 -27.828125 L 6.578125 -28.296875 C 7.28125 -28.296875 8.078125 -28.390625 8.546875 -28.859375 C 9.03125 -29.328125 9.171875 -30.171875 9.171875 -30.78125 L 9.171875 -32.1875 C 9.171875 -33.46875 8.984375 -34.875 7.890625 -35.953125 C 7 -36.84375 5.828125 -37.21875 4.703125 -37.21875 C 3.578125 -37.21875 2.390625 -36.84375 1.5 -35.953125 C 0.421875 -34.875 0.234375 -33.46875 0.234375 -32.1875 L 0.234375 -5.125 C 0.234375 -3.859375 0.421875 -2.4375 1.5 -1.359375 C 2.390625 -0.46875 3.578125 -0.09375 4.703125 -0.09375 C 5.828125 -0.09375 7 -0.46875 7.890625 -1.359375 C 8.984375 -2.4375 9.171875 -3.859375 9.171875 -5.125 L 9.171875 -15.9375 C 9.171875 -16.546875 9.03125 -17.390625 8.546875 -17.859375 C 8.078125 -18.328125 7.28125 -18.421875 6.578125 -18.421875 L 6.578125 -18.890625 C 7.28125 -18.890625 8.078125 -18.984375 8.546875 -19.453125 C 9.03125 -19.921875 9.171875 -20.78125 9.171875 -21.484375 L 9.640625 -21.484375 C 9.640625 -20.78125 9.734375 -19.96875 10.203125 -19.5 C 10.671875 -19.03125 11.515625 -18.890625 12.125 -18.890625 L 16.078125 -18.890625 C 16.6875 -18.890625 17.53125 -19.03125 18 -19.5 C 18.46875 -19.96875 18.5625 -20.78125 18.5625 -21.484375 L 19.03125 -21.484375 C 19.03125 -20.78125 19.171875 -19.921875 19.640625 -19.453125 C 20.109375 -18.984375 20.921875 -18.890625 21.625 -18.890625 L 21.625 -18.421875 C 20.921875 -18.421875 20.109375 -18.328125 19.640625 -17.859375 C 19.171875 -17.390625 19.03125 -16.546875 19.03125 -15.9375 L 19.03125 -5.125 C 19.03125 -3.859375 19.21875 -2.4375 20.296875 -1.359375 C 21.203125 -0.46875 22.375 -0.09375 23.5 -0.09375 C 24.625 -0.09375 25.796875 -0.46875 26.703125 -1.359375 C 27.78125 -2.4375 27.96875 -3.859375 27.96875 -5.125 Z M 27.96875 -5.125 "/></g></g></g><g fill="#ffffff" fill-opacity="1"><g transform="translate(203.476104, 176.312741)"><g><path d="M 27.96875 -4.5625 C 27.96875 -5.6875 27.59375 -6.859375 26.703125 -7.75 C 25.609375 -8.84375 24.203125 -9.03125 22.9375 -9.03125 L 12.125 -9.03125 C 11.515625 -9.03125 10.671875 -8.890625 10.203125 -8.40625 C 9.734375 -7.9375 9.640625 -7.140625 9.640625 -6.4375 L 9.171875 -6.4375 C 9.171875 -7.140625 9.03125 -7.984375 8.546875 -8.453125 C 8.078125 -8.9375 7.28125 -9.03125 6.578125 -9.03125 L 6.578125 -9.5 C 7.28125 -9.5 8.078125 -9.59375 8.546875 -10.0625 C 9.03125 -10.53125 9.171875 -11.375 9.171875 -11.984375 L 9.171875 -15.9375 C 9.171875 -16.546875 9.03125 -17.390625 8.546875 -17.859375 C 8.078125 -18.328125 7.28125 -18.421875 6.578125 -18.421875 L 6.578125 -18.890625 C 7.28125 -18.890625 8.078125 -18.984375 8.546875 -19.453125 C 9.03125 -19.921875 9.171875 -20.78125 9.171875 -21.484375 L 9.640625 -21.484375 C 9.640625 -20.78125 9.734375 -19.96875 10.203125 -19.5 C 10.671875 -19.03125 11.515625 -18.890625 12.125 -18.890625 L 16.078125 -18.890625 C 16.6875 -18.890625 17.53125 -19.03125 18 -19.5 C 18.46875 -19.96875 18.5625 -20.78125 18.5625 -21.484375 L 19.03125 -21.484375 C 19.03125 -20.78125 19.171875 -19.921875 19.640625 -19.453125 C 20.109375 -18.984375 20.921875 -18.890625 21.625 -18.890625 L 21.625 -18.421875 C 20.921875 -18.421875 20.109375 -18.328125 19.640625 -17.859375 C 19.171875 -17.390625 19.03125 -16.546875 19.03125 -15.84375 L 18.5625 -15.84375 C 18.5625 -16.546875 18.46875 -17.34375 18 -17.8125 C 17.53125 -18.28125 16.6875 -18.421875 16.078125 -18.421875 L 14.65625 -18.421875 C 13.390625 -18.421875 11.984375 -18.234375 10.90625 -17.15625 C 10.015625 -16.265625 9.640625 -15.09375 9.640625 -13.953125 C 9.640625 -12.828125 10.015625 -11.65625 10.90625 -10.765625 C 11.984375 -9.6875 13.390625 -9.5 14.65625 -9.5 L 22.9375 -9.5 C 24.203125 -9.5 25.609375 -9.6875 26.703125 -10.765625 C 27.78125 -11.84375 27.96875 -13.25 27.96875 -14.515625 L 27.96875 -22.796875 C 27.96875 -24.0625 27.78125 -25.46875 26.703125 -26.5625 C 25.609375 -27.640625 24.203125 -27.828125 22.9375 -27.828125 L 5.265625 -27.828125 C 4 -27.828125 2.578125 -27.640625 1.5 -26.5625 C 0.421875 -25.46875 0.234375 -24.0625 0.234375 -22.796875 L 0.234375 -5.125 C 0.234375 -3.859375 0.421875 -2.4375 1.5 -1.359375 C 2.578125 -0.28125 4 -0.09375 5.265625 -0.09375 L 22.9375 -0.09375 C 24.203125 -0.09375 25.609375 -0.28125 26.703125 -1.359375 C 27.59375 -2.25 27.96875 -3.4375 27.96875 -4.5625 Z M 27.96875 -4.5625 "/></g></g></g><g fill="#ffffff" fill-opacity="1"><g transform="translate(159.110794, 232.128033)"><g><path d="M 46.765625 -14.515625 L 46.765625 -22.796875 C 46.765625 -24.0625 46.578125 -25.46875 45.5 -26.5625 C 44.609375 -27.453125 43.421875 -27.828125 42.296875 -27.828125 C 41.171875 -27.828125 40 -27.453125 39.109375 -26.5625 C 38.015625 -25.46875 37.828125 -24.0625 37.828125 -22.796875 L 37.828125 -21.390625 C 37.828125 -20.78125 37.96875 -19.921875 38.453125 -19.453125 C 38.921875 -18.984375 39.71875 -18.890625 40.421875 -18.890625 L 40.421875 -18.421875 C 39.71875 -18.421875 38.921875 -18.328125 38.453125 -17.859375 C 37.96875 -17.390625 37.828125 -16.546875 37.828125 -15.84375 L 37.359375 -15.84375 C 37.359375 -16.546875 37.21875 -17.390625 36.75 -17.859375 C 36.28125 -18.328125 35.484375 -18.421875 34.875 -18.421875 L 32.90625 -18.421875 C 31.765625 -18.421875 30.59375 -18.046875 29.703125 -17.15625 C 28.625 -16.078125 28.4375 -14.65625 28.4375 -13.390625 L 28.4375 -11.984375 C 28.4375 -11.375 28.578125 -10.53125 29.046875 -10.0625 C 29.515625 -9.59375 30.3125 -9.5 31.015625 -9.5 L 31.015625 -9.03125 C 30.3125 -9.03125 29.515625 -8.9375 29.046875 -8.453125 C 28.578125 -7.984375 28.4375 -7.140625 28.4375 -6.4375 L 27.96875 -6.4375 C 27.96875 -7.140625 27.828125 -7.984375 27.359375 -8.453125 C 26.890625 -8.9375 26.078125 -9.03125 25.375 -9.03125 L 25.375 -9.5 C 26.078125 -9.5 26.890625 -9.59375 27.359375 -10.0625 C 27.828125 -10.53125 27.96875 -11.375 27.96875 -11.984375 L 27.96875 -22.796875 C 27.96875 -24.0625 27.78125 -25.46875 26.703125 -26.5625 C 25.796875 -27.453125 24.625 -27.828125 23.5 -27.828125 C 22.375 -27.828125 21.203125 -27.453125 20.296875 -26.5625 C 19.21875 -25.46875 19.03125 -24.0625 19.03125 -22.796875 L 19.03125 -21.390625 C 19.03125 -20.78125 19.171875 -19.921875 19.640625 -19.453125 C 20.109375 -18.984375 20.921875 -18.890625 21.625 -18.890625 L 21.625 -18.421875 C 20.921875 -18.421875 20.109375 -18.328125 19.640625 -17.859375 C 19.171875 -17.390625 19.03125 -16.546875 19.03125 -15.84375 L 18.5625 -15.84375 C 18.5625 -16.546875 18.421875 -17.390625 17.953125 -17.859375 C 17.484375 -18.328125 16.6875 -18.421875 16.078125 -18.421875 L 14.09375 -18.421875 C 12.96875 -18.421875 11.796875 -18.046875 10.90625 -17.15625 C 9.828125 -16.078125 9.640625 -14.65625 9.640625 -13.390625 L 9.640625 -11.984375 C 9.640625 -11.375 9.78125 -10.53125 10.25 -10.0625 C 10.71875 -9.59375 11.515625 -9.5 12.21875 -9.5 L 12.21875 -9.03125 C 11.515625 -9.03125 10.71875 -8.9375 10.25 -8.453125 C 9.78125 -7.984375 9.640625 -7.140625 9.640625 -6.4375 L 9.171875 -6.4375 C 9.171875 -7.140625 9.03125 -7.984375 8.546875 -8.453125 C 8.078125 -8.9375 7.28125 -9.03125 6.578125 -9.03125 L 6.578125 -9.5 C 7.28125 -9.5 8.078125 -9.59375 8.546875 -10.0625 C 9.03125 -10.53125 9.171875 -11.375 9.171875 -11.984375 L 9.171875 -22.796875 C 9.171875 -24.0625 8.984375 -25.46875 7.890625 -26.5625 C 7 -27.453125 5.828125 -27.828125 4.703125 -27.828125 C 3.578125 -27.828125 2.390625 -27.453125 1.5 -26.5625 C 0.421875 -25.46875 0.234375 -24.0625 0.234375 -22.796875 L 0.234375 -5.125 C 0.234375 -3.859375 0.421875 -2.4375 1.5 -1.359375 C 2.578125 -0.28125 4 -0.09375 5.265625 -0.09375 L 13.53125 -0.09375 C 14.8125 -0.09375 16.21875 -0.28125 17.296875 -1.359375 C 18.375 -2.4375 18.5625 -3.859375 18.5625 -5.125 L 18.5625 -6.53125 C 18.5625 -7.140625 18.46875 -7.9375 18 -8.40625 C 17.53125 -8.890625 16.6875 -9.03125 15.984375 -9.03125 L 15.984375 -9.5 C 16.6875 -9.5 17.53125 -9.640625 18 -10.109375 C 18.46875 -10.578125 18.5625 -11.375 18.5625 -12.078125 L 19.03125 -12.078125 C 19.03125 -11.375 19.171875 -10.53125 19.640625 -10.0625 C 20.109375 -9.59375 20.921875 -9.5 21.625 -9.5 L 21.625 -9.03125 C 20.921875 -9.03125 20.109375 -8.9375 19.640625 -8.453125 C 19.171875 -7.984375 19.03125 -7.140625 19.03125 -6.53125 L 19.03125 -5.125 C 19.03125 -3.859375 19.21875 -2.4375 20.296875 -1.359375 C 21.390625 -0.28125 22.796875 -0.09375 24.0625 -0.09375 L 32.34375 -0.09375 C 33.609375 -0.09375 35.015625 -0.28125 36.09375 -1.359375 C 37.171875 -2.4375 37.359375 -3.859375 37.359375 -5.125 L 37.359375 -6.53125 C 37.359375 -7.140625 37.265625 -7.9375 36.796875 -8.40625 C 36.328125 -8.890625 35.484375 -9.03125 34.78125 -9.03125 L 34.78125 -9.5 C 35.484375 -9.5 36.328125 -9.640625 36.796875 -10.109375 C 37.265625 -10.578125 37.359375 -11.375 37.359375 -12.078125 L 37.828125 -12.078125 C 37.828125 -11.375 37.96875 -10.53125 38.453125 -10.0625 C 38.921875 -9.59375 39.71875 -9.5 40.328125 -9.5 L 41.734375 -9.5 C 43 -9.5 44.421875 -9.6875 45.5 -10.765625 C 46.578125 -11.84375 46.765625 -13.25 46.765625 -14.515625 Z M 46.765625 -14.515625 "/></g></g></g><g fill="#ffffff" fill-opacity="1"><g transform="translate(206.102909, 232.128033)"><g><path d="M 27.96875 -4.5625 C 27.96875 -5.6875 27.59375 -6.859375 26.703125 -7.75 C 25.609375 -8.84375 24.203125 -9.03125 22.9375 -9.03125 L 12.125 -9.03125 C 11.515625 -9.03125 10.671875 -8.890625 10.203125 -8.40625 C 9.734375 -7.9375 9.640625 -7.140625 9.640625 -6.4375 L 9.171875 -6.4375 C 9.171875 -7.140625 9.03125 -7.984375 8.546875 -8.453125 C 8.078125 -8.9375 7.28125 -9.03125 6.578125 -9.03125 L 6.578125 -9.5 C 7.28125 -9.5 8.078125 -9.59375 8.546875 -10.0625 C 9.03125 -10.53125 9.171875 -11.375 9.171875 -11.984375 L 9.171875 -15.9375 C 9.171875 -16.546875 9.03125 -17.390625 8.546875 -17.859375 C 8.078125 -18.328125 7.28125 -18.421875 6.578125 -18.421875 L 6.578125 -18.890625 C 7.28125 -18.890625 8.078125 -18.984375 8.546875 -19.453125 C 9.03125 -19.921875 9.171875 -20.78125 9.171875 -21.484375 L 9.640625 -21.484375 C 9.640625 -20.78125 9.734375 -19.96875 10.203125 -19.5 C 10.671875 -19.03125 11.515625 -18.890625 12.125 -18.890625 L 16.078125 -18.890625 C 16.6875 -18.890625 17.53125 -19.03125 18 -19.5 C 18.46875 -19.96875 18.5625 -20.78125 18.5625 -21.484375 L 19.03125 -21.484375 C 19.03125 -20.78125 19.171875 -19.921875 19.640625 -19.453125 C 20.109375 -18.984375 20.921875 -18.890625 21.625 -18.890625 L 21.625 -18.421875 C 20.921875 -18.421875 20.109375 -18.328125 19.640625 -17.859375 C 19.171875 -17.390625 19.03125 -16.546875 19.03125 -15.84375 L 18.5625 -15.84375 C 18.5625 -16.546875 18.46875 -17.34375 18 -17.8125 C 17.53125 -18.28125 16.6875 -18.421875 16.078125 -18.421875 L 14.65625 -18.421875 C 13.390625 -18.421875 11.984375 -18.234375 10.90625 -17.15625 C 10.015625 -16.265625 9.640625 -15.09375 9.640625 -13.953125 C 9.640625 -12.828125 10.015625 -11.65625 10.90625 -10.765625 C 11.984375 -9.6875 13.390625 -9.5 14.65625 -9.5 L 22.9375 -9.5 C 24.203125 -9.5 25.609375 -9.6875 26.703125 -10.765625 C 27.78125 -11.84375 27.96875 -13.25 27.96875 -14.515625 L 27.96875 -22.796875 C 27.96875 -24.0625 27.78125 -25.46875 26.703125 -26.5625 C 25.609375 -27.640625 24.203125 -27.828125 22.9375 -27.828125 L 5.265625 -27.828125 C 4 -27.828125 2.578125 -27.640625 1.5 -26.5625 C 0.421875 -25.46875 0.234375 -24.0625 0.234375 -22.796875 L 0.234375 -5.125 C 0.234375 -3.859375 0.421875 -2.4375 1.5 -1.359375 C 2.578125 -0.28125 4 -0.09375 5.265625 -0.09375 L 22.9375 -0.09375 C 24.203125 -0.09375 25.609375 -0.28125 26.703125 -1.359375 C 27.59375 -2.25 27.96875 -3.4375 27.96875 -4.5625 Z M 27.96875 -4.5625 "/></g></g></g><g fill="#ffffff" fill-opacity="1"><g transform="translate(234.298186, 232.128033)"><g><path d="M 13.53125 -9.5 C 14.8125 -9.5 16.21875 -9.6875 17.296875 -10.765625 C 18.1875 -11.65625 18.5625 -12.828125 18.5625 -13.953125 C 18.5625 -15.09375 18.1875 -16.265625 17.296875 -17.15625 C 16.21875 -18.234375 14.8125 -18.421875 13.53125 -18.421875 L 5.265625 -18.421875 C 4 -18.421875 2.578125 -18.234375 1.5 -17.15625 C 0.421875 -16.078125 0.234375 -14.65625 0.234375 -13.390625 L 0.234375 -5.125 C 0.234375 -3.859375 0.421875 -2.4375 1.5 -1.359375 C 2.578125 -0.28125 4 -0.09375 5.265625 -0.09375 L 22.9375 -0.09375 C 24.203125 -0.09375 25.609375 -0.28125 26.703125 -1.359375 C 27.78125 -2.4375 27.96875 -3.859375 27.96875 -5.125 L 27.96875 -22.796875 C 27.96875 -24.0625 27.78125 -25.46875 26.703125 -26.5625 C 25.609375 -27.640625 24.203125 -27.828125 22.9375 -27.828125 L 5.265625 -27.828125 C 4 -27.828125 2.578125 -27.640625 1.5 -26.5625 C 0.609375 -25.65625 0.234375 -24.484375 0.234375 -23.359375 C 0.234375 -22.234375 0.609375 -21.0625 1.5 -20.15625 C 2.578125 -19.078125 4 -18.890625 5.265625 -18.890625 L 16.078125 -18.890625 C 16.6875 -18.890625 17.53125 -19.03125 18 -19.5 C 18.46875 -19.96875 18.5625 -20.78125 18.5625 -21.484375 L 19.03125 -21.484375 C 19.03125 -20.78125 19.171875 -19.921875 19.640625 -19.453125 C 20.109375 -18.984375 20.921875 -18.890625 21.625 -18.890625 L 21.625 -18.421875 C 20.921875 -18.421875 20.109375 -18.328125 19.640625 -17.859375 C 19.171875 -17.390625 19.03125 -16.546875 19.03125 -15.9375 L 19.03125 -11.984375 C 19.03125 -11.375 19.171875 -10.53125 19.640625 -10.0625 C 20.109375 -9.59375 20.921875 -9.5 21.625 -9.5 L 21.625 -9.03125 C 20.921875 -9.03125 20.109375 -8.9375 19.640625 -8.453125 C 19.171875 -7.984375 19.03125 -7.140625 19.03125 -6.4375 L 18.5625 -6.4375 C 18.5625 -7.140625 18.46875 -7.9375 18 -8.40625 C 17.53125 -8.890625 16.6875 -9.03125 16.078125 -9.03125 L 12.125 -9.03125 C 11.515625 -9.03125 10.671875 -8.890625 10.203125 -8.40625 C 9.734375 -7.9375 9.640625 -7.140625 9.640625 -6.4375 L 9.171875 -6.4375 C 9.171875 -7.140625 9.03125 -7.984375 8.546875 -8.453125 C 8.078125 -8.9375 7.28125 -9.03125 6.578125 -9.03125 L 6.578125 -9.5 C 7.28125 -9.5 8.078125 -9.59375 8.546875 -10.0625 C 9.03125 -10.53125 9.171875 -11.375 9.171875 -12.078125 L 9.640625 -12.078125 C 9.640625 -11.375 9.734375 -10.578125 10.203125 -10.109375 C 10.671875 -9.640625 11.515625 -9.5 12.125 -9.5 Z M 13.53125 -9.5 "/></g></g></g><g fill="#ffffff" fill-opacity="1"><g transform="translate(262.493462, 232.128033)"><g><path d="M 18.5625 -4.5625 C 18.5625 -5.6875 18.1875 -6.859375 17.296875 -7.75 C 16.21875 -8.84375 14.8125 -9.03125 13.53125 -9.03125 L 12.125 -9.03125 C 11.515625 -9.03125 10.671875 -8.890625 10.203125 -8.40625 C 9.734375 -7.9375 9.640625 -7.140625 9.640625 -6.4375 L 9.171875 -6.4375 C 9.171875 -7.140625 9.03125 -7.984375 8.546875 -8.453125 C 8.078125 -8.9375 7.28125 -9.03125 6.578125 -9.03125 L 6.578125 -9.5 C 7.28125 -9.5 8.078125 -9.59375 8.546875 -10.0625 C 9.03125 -10.53125 9.171875 -11.375 9.171875 -11.984375 L 9.171875 -15.984375 C 9.171875 -16.59375 9.078125 -17.34375 8.59375 -17.8125 C 8.125 -18.28125 7.28125 -18.421875 6.578125 -18.421875 L 6.578125 -18.890625 C 7.28125 -18.890625 8.125 -19.03125 8.59375 -19.5 C 9.078125 -19.96875 9.171875 -20.78125 9.171875 -21.484375 L 9.640625 -21.484375 C 9.640625 -20.78125 9.78125 -19.921875 10.25 -19.453125 C 10.71875 -18.984375 11.515625 -18.890625 12.125 -18.890625 L 13.53125 -18.890625 C 14.8125 -18.890625 16.21875 -19.078125 17.296875 -20.15625 C 18.1875 -21.0625 18.5625 -22.234375 18.5625 -23.359375 C 18.5625 -24.484375 18.1875 -25.65625 17.296875 -26.5625 C 16.21875 -27.640625 14.8125 -27.828125 13.53125 -27.828125 L 12.125 -27.828125 C 11.515625 -27.828125 10.671875 -27.6875 10.203125 -27.21875 C 9.734375 -26.75 9.640625 -25.9375 9.640625 -25.234375 L 9.171875 -25.234375 C 9.171875 -25.9375 9.03125 -26.796875 8.546875 -27.265625 C 8.078125 -27.734375 7.28125 -27.828125 6.578125 -27.828125 L 6.578125 -28.296875 C 7.28125 -28.296875 8.078125 -28.390625 8.546875 -28.859375 C 9.03125 -29.328125 9.171875 -30.171875 9.171875 -30.78125 L 9.171875 -32.1875 C 9.171875 -33.46875 8.984375 -34.875 7.890625 -35.953125 C 7 -36.84375 5.828125 -37.21875 4.703125 -37.21875 C 3.578125 -37.21875 2.390625 -36.84375 1.5 -35.953125 C 0.421875 -34.875 0.234375 -33.46875 0.234375 -32.1875 L 0.234375 -5.125 C 0.234375 -3.859375 0.421875 -2.4375 1.5 -1.359375 C 2.578125 -0.28125 4 -0.09375 5.265625 -0.09375 L 13.53125 -0.09375 C 14.8125 -0.09375 16.21875 -0.28125 17.296875 -1.359375 C 18.1875 -2.25 18.5625 -3.4375 18.5625 -4.5625 Z M 18.5625 -4.5625 "/></g></g></g><g fill="#ffffff" fill-opacity="1"><g transform="translate(281.290312, 232.128033)"><g><path d="M 27.96875 -5.125 L 27.96875 -22.796875 C 27.96875 -24.0625 27.78125 -25.46875 26.703125 -26.5625 C 25.609375 -27.640625 24.203125 -27.828125 22.9375 -27.828125 L 12.125 -27.828125 C 11.515625 -27.828125 10.71875 -27.734375 10.25 -27.265625 C 9.78125 -26.796875 9.640625 -25.9375 9.640625 -25.234375 L 9.171875 -25.234375 C 9.171875 -25.9375 9.078125 -26.75 8.59375 -27.21875 C 8.125 -27.6875 7.28125 -27.828125 6.578125 -27.828125 L 6.578125 -28.296875 C 7.28125 -28.296875 8.078125 -28.390625 8.546875 -28.859375 C 9.03125 -29.328125 9.171875 -30.171875 9.171875 -30.78125 L 9.171875 -32.1875 C 9.171875 -33.46875 8.984375 -34.875 7.890625 -35.953125 C 7 -36.84375 5.828125 -37.21875 4.703125 -37.21875 C 3.578125 -37.21875 2.390625 -36.84375 1.5 -35.953125 C 0.421875 -34.875 0.234375 -33.46875 0.234375 -32.1875 L 0.234375 -5.125 C 0.234375 -3.859375 0.421875 -2.4375 1.5 -1.359375 C 2.390625 -0.46875 3.578125 -0.09375 4.703125 -0.09375 C 5.828125 -0.09375 7 -0.46875 7.890625 -1.359375 C 8.984375 -2.4375 9.171875 -3.859375 9.171875 -5.125 L 9.171875 -15.9375 C 9.171875 -16.546875 9.03125 -17.390625 8.546875 -17.859375 C 8.078125 -18.328125 7.28125 -18.421875 6.578125 -18.421875 L 6.578125 -18.890625 C 7.28125 -18.890625 8.078125 -18.984375 8.546875 -19.453125 C 9.03125 -19.921875 9.171875 -20.78125 9.171875 -21.484375 L 9.640625 -21.484375 C 9.640625 -20.78125 9.734375 -19.96875 10.203125 -19.5 C 10.671875 -19.03125 11.515625 -18.890625 12.125 -18.890625 L 16.078125 -18.890625 C 16.6875 -18.890625 17.53125 -19.03125 18 -19.5 C 18.46875 -19.96875 18.5625 -20.78125 18.5625 -21.484375 L 19.03125 -21.484375 C 19.03125 -20.78125 19.171875 -19.921875 19.640625 -19.453125 C 20.109375 -18.984375 20.921875 -18.890625 21.625 -18.890625 L 21.625 -18.421875 C 20.921875 -18.421875 20.109375 -18.328125 19.640625 -17.859375 C 19.171875 -17.390625 19.03125 -16.546875 19.03125 -15.9375 L 19.03125 -5.125 C 19.03125 -3.859375 19.21875 -2.4375 20.296875 -1.359375 C 21.203125 -0.46875 22.375 -0.09375 23.5 -0.09375 C 24.625 -0.09375 25.796875 -0.46875 26.703125 -1.359375 C 27.78125 -2.4375 27.96875 -3.859375 27.96875 -5.125 Z M 27.96875 -5.125 "/></g></g></g><g fill="#ffffff" fill-opacity="1"><g transform="translate(309.485588, 232.128033)"><g><path d="M 27.96875 -4.5625 C 27.96875 -5.6875 27.59375 -6.859375 26.703125 -7.75 C 25.609375 -8.84375 24.203125 -9.03125 22.9375 -9.03125 L 12.125 -9.03125 C 11.515625 -9.03125 10.671875 -8.890625 10.203125 -8.40625 C 9.734375 -7.9375 9.640625 -7.140625 9.640625 -6.4375 L 9.171875 -6.4375 C 9.171875 -7.140625 9.03125 -7.984375 8.546875 -8.453125 C 8.078125 -8.9375 7.28125 -9.03125 6.578125 -9.03125 L 6.578125 -9.5 C 7.28125 -9.5 8.078125 -9.59375 8.546875 -10.0625 C 9.03125 -10.53125 9.171875 -11.375 9.171875 -11.984375 L 9.171875 -15.9375 C 9.171875 -16.546875 9.03125 -17.390625 8.546875 -17.859375 C 8.078125 -18.328125 7.28125 -18.421875 6.578125 -18.421875 L 6.578125 -18.890625 C 7.28125 -18.890625 8.078125 -18.984375 8.546875 -19.453125 C 9.03125 -19.921875 9.171875 -20.78125 9.171875 -21.484375 L 9.640625 -21.484375 C 9.640625 -20.78125 9.734375 -19.96875 10.203125 -19.5 C 10.671875 -19.03125 11.515625 -18.890625 12.125 -18.890625 L 16.078125 -18.890625 C 16.6875 -18.890625 17.53125 -19.03125 18 -19.5 C 18.46875 -19.96875 18.5625 -20.78125 18.5625 -21.484375 L 19.03125 -21.484375 C 19.03125 -20.78125 19.171875 -19.921875 19.640625 -19.453125 C 20.109375 -18.984375 20.921875 -18.890625 21.625 -18.890625 L 21.625 -18.421875 C 20.921875 -18.421875 20.109375 -18.328125 19.640625 -17.859375 C 19.171875 -17.390625 19.03125 -16.546875 19.03125 -15.84375 L 18.5625 -15.84375 C 18.5625 -16.546875 18.46875 -17.34375 18 -17.8125 C 17.53125 -18.28125 16.6875 -18.421875 16.078125 -18.421875 L 14.65625 -18.421875 C 13.390625 -18.421875 11.984375 -18.234375 10.90625 -17.15625 C 10.015625 -16.265625 9.640625 -15.09375 9.640625 -13.953125 C 9.640625 -12.828125 10.015625 -11.65625 10.90625 -10.765625 C 11.984375 -9.6875 13.390625 -9.5 14.65625 -9.5 L 22.9375 -9.5 C 24.203125 -9.5 25.609375 -9.6875 26.703125 -10.765625 C 27.78125 -11.84375 27.96875 -13.25 27.96875 -14.515625 L 27.96875 -22.796875 C 27.96875 -24.0625 27.78125 -25.46875 26.703125 -26.5625 C 25.609375 -27.640625 24.203125 -27.828125 22.9375 -27.828125 L 5.265625 -27.828125 C 4 -27.828125 2.578125 -27.640625 1.5 -26.5625 C 0.421875 -25.46875 0.234375 -24.0625 0.234375 -22.796875 L 0.234375 -5.125 C 0.234375 -3.859375 0.421875 -2.4375 1.5 -1.359375 C 2.578125 -0.28125 4 -0.09375 5.265625 -0.09375 L 22.9375 -0.09375 C 24.203125 -0.09375 25.609375 -0.28125 26.703125 -1.359375 C 27.59375 -2.25 27.96875 -3.4375 27.96875 -4.5625 Z M 27.96875 -4.5625 "/></g></g></g><g fill="#ffffff" fill-opacity="1"><g transform="translate(337.680864, 232.128033)"><g><path d="M 27.96875 -14.515625 L 27.96875 -22.796875 C 27.96875 -24.0625 27.78125 -25.46875 26.703125 -26.5625 C 25.609375 -27.640625 24.203125 -27.828125 22.9375 -27.828125 L 5.265625 -27.828125 C 4 -27.828125 2.578125 -27.640625 1.5 -26.5625 C 0.421875 -25.46875 0.234375 -24.0625 0.234375 -22.796875 L 0.234375 -5.125 C 0.234375 -3.859375 0.421875 -2.4375 1.5 -1.359375 C 2.390625 -0.46875 3.578125 -0.09375 4.703125 -0.09375 C 5.828125 -0.09375 7 -0.46875 7.890625 -1.359375 C 8.984375 -2.4375 9.171875 -3.859375 9.171875 -5.125 L 9.171875 -15.9375 C 9.171875 -16.546875 9.03125 -17.390625 8.546875 -17.859375 C 8.078125 -18.328125 7.28125 -18.421875 6.578125 -18.421875 L 6.578125 -18.890625 C 7.28125 -18.890625 8.078125 -18.984375 8.546875 -19.453125 C 9.03125 -19.921875 9.171875 -20.78125 9.171875 -21.484375 L 9.640625 -21.484375 C 9.640625 -20.78125 9.734375 -19.96875 10.203125 -19.5 C 10.671875 -19.03125 11.515625 -18.890625 12.125 -18.890625 L 16.078125 -18.890625 C 16.6875 -18.890625 17.53125 -19.03125 18 -19.5 C 18.46875 -19.96875 18.5625 -20.78125 18.5625 -21.484375 L 19.03125 -21.484375 C 19.03125 -20.78125 19.171875 -19.921875 19.640625 -19.453125 C 20.109375 -18.984375 20.921875 -18.890625 21.625 -18.890625 L 21.625 -18.421875 C 20.921875 -18.421875 20.109375 -18.328125 19.640625 -17.859375 C 19.171875 -17.390625 19.03125 -16.546875 19.03125 -15.9375 L 19.03125 -14.515625 C 19.03125 -13.25 19.21875 -11.84375 20.296875 -10.765625 C 21.203125 -9.875 22.375 -9.5 23.5 -9.5 C 24.625 -9.5 25.796875 -9.875 26.703125 -10.765625 C 27.78125 -11.84375 27.96875 -13.25 27.96875 -14.515625 Z M 27.96875 -14.515625 "/></g></g></g></svg>